<svg width="1573" height="153" viewBox="0 0 1573 153" fill="none" xmlns="http://www.w3.org/2000/svg">
<path d="M30.4 116.2C29.3333 116.2 28.1333 115.133 26.8 113C23.4667 107.933 19.8667 103.133 16 98.6C12.2667 93.9333 8.26667 89.5333 4 85.4C1.73333 83.1333 0.6 81.4 0.6 80.2C0.6 79.2667 1 78.4 1.8 77.6C2.73333 76.6667 3.93333 75.5333 5.4 74.2C13.9333 66.2 22.4667 58.0667 31 49.8C39.5333 41.5333 48.2667 33.6667 57.2 26.2C57.7333 25.6667 58.3333 25.4 59 25.4C59.9333 25.4 60.4 25.9333 60.4 27C60.4 27.5333 60.1333 28.4 59.6 29.6C59.0667 30.6667 58.0667 32 56.6 33.6C53.5333 37.3333 48.4667 42.8667 41.4 50.2C34.3333 57.4 25.4667 65.9333 14.8 75.8C19.0667 83.5333 22.6 90.2 25.4 95.8C28.3333 101.4 30.3333 105.533 31.4 108.2C31.9333 109.8 32.2 111.333 32.2 112.8C32.2 115.067 31.6 116.2 30.4 116.2ZM132.931 138.6C128.531 138.6 124.331 137.867 120.331 136.4C116.331 134.933 113.065 132.6 110.531 129.4C107.998 126.2 106.731 122.133 106.731 117.2C106.731 116 106.998 114.933 107.531 114C108.198 112.933 108.798 112.4 109.331 112.4C110.398 112.4 110.931 114 110.931 117.2C110.931 121.733 112.865 125.267 116.731 127.8C119.798 129.8 123.931 130.8 129.131 130.8C134.331 130.8 139.731 129.867 145.331 128C150.931 126.133 156.265 123.467 161.331 120C167.331 116 173.998 110.267 181.331 102.8C188.798 95.2 196.531 86.9333 204.531 78C198.131 77.3333 191.731 76.6 185.331 75.8C179.065 75 172.731 74.6 166.331 74.6C162.065 74.6 157.798 75.0667 153.531 76C149.265 76.8 145.398 78.4 141.931 80.8C138.465 83.2 135.865 86.7333 134.131 91.4C133.998 91.9333 133.798 92.5333 133.531 93.2C133.398 93.8667 133.331 94.5333 133.331 95.2C133.331 96.5333 133.665 97.7333 134.331 98.8C134.598 99.6 134.731 100.067 134.731 100.2C134.731 101.4 134.198 102 133.131 102C132.198 102 131.465 101.533 130.931 100.6C129.598 98.2 128.931 95.1333 128.931 91.4C128.931 84.3333 130.198 78.9333 132.731 75.2C135.398 71.4667 138.931 68.9333 143.331 67.6C147.731 66.2667 152.465 65.6 157.531 65.6C159.798 65.6 162.131 65.7333 164.531 66C167.065 66.1333 169.531 66.3333 171.931 66.6C177.798 67.1333 183.865 68.0667 190.131 69.4C196.398 70.6 202.665 71.8667 208.931 73.2C215.865 65.0667 222.665 56.8667 229.331 48.6C236.131 40.3333 242.465 32.5333 248.331 25.2C254.198 17.7333 259.198 11.3333 263.331 5.99999C263.465 5.6 263.731 5.33333 264.131 5.19999C264.398 4.93333 264.598 4.79999 264.731 4.79999C266.198 4 268.065 3.33333 270.331 2.8C272.598 2.13333 274.131 1.8 274.931 1.8C276.265 1.8 276.931 2.53333 276.931 3.99999C276.931 4.4 276.598 5.13333 275.931 6.19999C269.265 17.5333 263.531 29.1333 258.731 41C254.065 52.8667 249.931 65.0667 246.331 77.6L245.931 79C246.731 79 247.531 79.0667 248.331 79.2C249.265 79.2 250.065 79.2 250.731 79.2C256.465 79.6 261.331 79 265.331 77.4C268.265 76.3333 270.265 74.8 271.331 72.8C271.731 72.2667 272.065 72 272.331 72C272.998 72 273.465 72.4 273.731 73.2C273.998 73.8667 273.931 74.5333 273.531 75.2C272.065 77.7333 269.465 79.6 265.731 80.8C263.598 81.7333 261.131 82.3333 258.331 82.6C255.665 82.8667 252.865 82.9333 249.931 82.8H248.731L246.331 82.6H245.131C243.131 89.9333 241.731 97.5333 240.931 105.4C240.798 106.067 240.731 106.733 240.731 107.4C240.731 107.933 240.731 108.533 240.731 109.2C240.731 116.8 242.798 120.6 246.931 120.6C249.598 120.6 252.731 119.4 256.331 117C260.065 114.6 263.798 111.667 267.531 108.2C271.398 104.733 274.865 101.333 277.931 98C280.998 94.5333 283.265 91.8 284.731 89.8C284.998 89.5333 285.398 89.4 285.931 89.4C287.265 89.4 287.665 90.1333 287.131 91.6C286.865 92 285.731 93.6 283.731 96.4C281.731 99.0667 278.998 102.333 275.531 106.2C272.065 109.933 267.998 113.667 263.331 117.4C259.598 120.333 255.865 122.2 252.131 123C248.531 123.933 245.798 124.4 243.931 124.4C240.198 124.4 237.198 122.733 234.931 119.4C232.798 115.933 231.731 111.533 231.731 106.2C231.731 102.333 232.131 98.3333 232.931 94.2C233.731 90.0667 234.665 85.9333 235.731 81.8C231.865 81.4 227.931 81 223.931 80.6C219.931 80.0667 215.931 79.5333 211.931 79C203.931 88.7333 195.931 97.8667 187.931 106.4C180.065 114.8 172.665 121.6 165.731 126.8C160.531 130.533 155.131 133.4 149.531 135.4C144.065 137.533 138.531 138.6 132.931 138.6ZM236.531 78C238.931 68.6667 241.731 59.3333 244.931 50C248.265 40.5333 251.531 31.9333 254.731 24.2L255.731 21.8C249.998 29.8 243.665 38.3333 236.731 47.4C229.931 56.4667 222.998 65.4667 215.931 74.4C219.398 75.0667 222.865 75.7333 226.331 76.4C229.798 76.9333 233.198 77.4667 236.531 78ZM351.467 152.8C346.534 152.8 341.801 151 337.267 147.4C332.867 143.933 328.801 139.267 325.067 133.4C321.334 127.667 318.134 121.4 315.467 114.6C312.934 107.667 311.067 100.933 309.867 94.4C305.334 100.8 301.401 106.667 298.067 112C294.867 117.333 292.534 120.4 291.067 121.2C290.401 121.6 288.867 122.267 286.467 123.2C284.067 124.133 282.267 124.6 281.067 124.6C280.134 124.6 279.867 124.133 280.267 123.2C280.534 122.667 281.201 121 282.267 118.2C283.334 115.267 284.601 111.667 286.067 107.4C287.534 103.133 289.067 98.6667 290.667 94C292.401 89.3333 294.067 84.9333 295.667 80.8C294.334 82.2667 292.801 84.1333 291.067 86.4C289.334 88.5333 287.334 91.2667 285.067 94.6C284.667 95.2667 284.001 95.6 283.067 95.6C282.134 95.6 281.667 95.2 281.667 94.4C281.667 93.6 282.134 92.6667 283.067 91.6C284.934 89.3333 286.934 86.7333 289.067 83.8C291.201 80.8667 293.267 78 295.267 75.2C297.267 72.4 298.867 70.1333 300.067 68.4C298.067 67.3333 297.067 65.9333 297.067 64.2C297.067 63.1333 297.467 62.3333 298.267 61.8C299.201 61.1333 300.134 61.1333 301.067 61.8C301.601 62.0667 302.067 62.2 302.467 62.2C304.734 56.2 307.601 49.7333 311.067 42.8C314.534 35.7333 318.534 29.0667 323.067 22.8C327.601 16.4 332.467 11.2 337.667 7.2C343.001 3.2 348.601 1.19999 354.467 1.19999C355.134 1.19999 355.801 1.26666 356.467 1.39999C357.267 1.39999 358.001 1.46666 358.667 1.59999C359.467 1.73333 360.201 2 360.867 2.39999C361.667 2.79999 362.401 3.13333 363.067 3.39999C366.134 5.13332 367.667 7.66666 367.667 11C367.667 13.4 367.001 16.0667 365.667 19C364.334 21.8 362.667 24.6 360.667 27.4C358.801 30.2 356.934 32.7333 355.067 35C353.201 37.2667 351.734 39 350.667 40.2C344.134 46.8667 337.067 52.9333 329.467 58.4C322.001 63.8667 315.467 67.7333 309.867 70C307.734 74.5333 305.734 79.2 303.867 84C302.001 88.6667 300.401 93 299.067 97C297.867 100.867 296.934 103.867 296.267 106C298.534 103.2 300.667 100.4 302.667 97.6C304.801 94.6667 306.934 91.8 309.067 89C309.067 88.4667 309.001 87.9333 308.867 87.4C308.867 86.8667 308.867 86.3333 308.867 85.8C308.867 85 308.867 84.2667 308.867 83.6C309.001 82.8 309.134 82.0667 309.267 81.4C309.401 80.6 309.734 79.8 310.267 79C310.801 78.2 311.334 77.8 311.867 77.8C312.667 77.8 313.134 78.6 313.267 80.2C313.401 80.6 313.534 81.0667 313.667 81.6C313.801 82.1333 313.934 82.6667 314.067 83.2C315.801 81.2 317.934 78.7333 320.467 75.8C323.134 72.8667 325.867 70.0667 328.667 67.4C331.467 64.7333 334.001 62.8667 336.267 61.8C338.134 60.8667 340.001 60.4 341.867 60.4C343.734 60.4 345.267 60.8667 346.467 61.8C347.667 62.6 348.267 63.6 348.267 64.8C348.267 66.6667 346.867 68.2667 344.067 69.6C341.934 70.5333 339.067 71.8667 335.467 73.6C332.001 75.3333 328.401 77.4 324.667 79.8C320.934 82.2 317.734 84.8 315.067 87.6C317.067 94.6667 319.001 100.733 320.867 105.8C322.867 110.867 325.201 115.733 327.867 120.4C330.667 124.933 334.334 130.067 338.867 135.8C341.934 139.267 345.067 142.067 348.267 144.2C351.467 146.333 354.334 147.4 356.867 147.4C359.134 147.4 360.667 146.867 361.467 145.8C362.401 144.867 362.867 143.667 362.867 142.2C362.867 140.467 362.401 138.533 361.467 136.4C360.667 134.4 359.801 132.733 358.867 131.4C358.201 130.6 357.867 129.867 357.867 129.2C357.867 128.8 358.134 128.6 358.667 128.6C359.867 128.6 361.134 129.133 362.467 130.2C363.134 131 364.001 132.533 365.067 134.8C366.267 137.2 366.867 139.267 366.867 141C366.867 143.667 365.934 145.867 364.067 147.6C362.201 149.467 360.067 150.8 357.667 151.6C355.267 152.4 353.201 152.8 351.467 152.8ZM312.267 63.2C318.001 60.6667 323.801 57.2 329.667 52.8C335.534 48.4 341.001 43.2 346.067 37.2C346.734 36.4 347.867 34.9333 349.467 32.8C351.067 30.5333 352.801 28 354.667 25.2C356.667 22.4 358.334 19.6 359.667 16.8C361.001 14 361.667 11.6667 361.667 9.79999C361.667 8.46666 361.267 7.53332 360.467 6.99999C360.067 6.6 359.467 6.4 358.667 6.4C356.534 6.4 354.067 7.53333 351.267 9.79999C342.334 16.7333 334.867 24.5333 328.867 33.2C323.001 41.7333 317.467 51.7333 312.267 63.2ZM406.417 124C404.151 124 402.017 123.467 400.017 122.4C398.151 121.333 396.751 119.333 395.817 116.4C395.417 115.2 395.217 113.533 395.217 111.4C395.217 108.467 395.617 105.2 396.417 101.6C397.217 98 398.084 94.9333 399.017 92.4C398.351 92.6667 397.084 93.8667 395.217 96C393.484 98 391.284 100.467 388.617 103.4C386.084 106.2 383.217 109.067 380.017 112C376.951 114.8 373.751 117.133 370.417 119C367.084 120.867 363.817 121.8 360.617 121.8C358.484 121.8 356.217 121.2 353.817 120C351.417 118.667 349.484 117 348.017 115C346.017 112.333 345.017 109.6 345.017 106.8C345.017 103.2 346.217 99.4667 348.617 95.6C351.151 91.7333 354.351 88 358.217 84.4C362.217 80.6667 366.417 77.3333 370.817 74.4C375.351 71.3333 379.617 68.8 383.617 66.8C387.751 64.6667 391.084 63.2667 393.617 62.6C396.284 61.8 399.284 61.4 402.617 61.4C404.484 61.4 406.417 61.6667 408.417 62.2C410.417 62.6 412.084 63.3333 413.417 64.4C414.484 64.9333 415.351 65.6667 416.017 66.6C416.684 67.5333 417.017 68.5333 417.017 69.6C417.017 70.6667 416.551 71 415.617 70.6C414.551 69 413.084 68 411.217 67.6C409.484 67.0667 407.684 66.8 405.817 66.8C400.484 66.8 394.617 68.5333 388.217 72C381.817 75.4667 376.084 79.5333 371.017 84.2C369.417 85.5333 367.217 87.8667 364.417 91.2C361.751 94.4 359.284 97.9333 357.017 101.8C354.751 105.667 353.617 109.2 353.617 112.4C353.617 114.133 354.084 115.667 355.017 117C355.551 117.933 356.417 118.4 357.617 118.4C359.484 118.4 361.951 117.4 365.017 115.4C368.217 113.4 371.484 111 374.817 108.2C378.151 105.267 381.151 102.467 383.817 99.8C386.617 97.1333 388.617 95.2 389.817 94C390.484 93.3333 391.751 92 393.617 90C395.617 87.8667 397.751 85.6 400.017 83.2C402.284 80.8 404.284 78.7333 406.017 77C407.884 75.2667 409.084 74.4 409.617 74.4C410.284 74.4 411.351 74.6 412.817 75C414.417 75.2667 415.751 75.7333 416.817 76.4C417.884 77.0667 418.084 77.9333 417.417 79C413.951 84.0667 411.151 89.4 409.017 95C407.017 100.467 405.817 104.8 405.417 108C405.284 108.533 405.217 109.067 405.217 109.6C405.217 110 405.217 110.467 405.217 111C405.217 116.333 407.084 119 410.817 119C412.817 119 415.484 117.8 418.817 115.4C422.151 113 425.551 110.133 429.017 106.8C432.484 103.467 435.617 100.267 438.417 97.2C441.351 94 443.351 91.6 444.417 90C444.817 89.6 445.217 89.4 445.617 89.4C446.151 89.4 446.617 89.6667 447.017 90.2C447.417 90.6 447.417 91.1333 447.017 91.8C445.551 94.2 443.417 97.0667 440.617 100.4C437.817 103.733 434.684 107.067 431.217 110.4C427.751 113.733 424.351 116.6 421.017 119C419.284 120.333 417.084 121.467 414.417 122.4C411.751 123.467 409.084 124 406.417 124ZM443.442 132C441.976 132 440.509 131.8 439.042 131.4C437.576 131 436.509 130.2 435.842 129C435.309 127.933 435.376 126.6 436.042 125C436.709 123.533 437.642 122.2 438.842 121C439.909 119.933 441.242 118.867 442.842 117.8C444.576 116.733 446.376 115.867 448.242 115.2H448.642C449.309 115.2 449.642 115.467 449.642 116C449.642 116.4 449.376 116.8 448.842 117.2C446.442 118.4 444.576 119.867 443.242 121.6C442.309 122.667 441.842 123.8 441.842 125C441.842 127.133 443.109 128.2 445.642 128.2C448.442 128.2 451.442 127.333 454.642 125.6C457.976 124 461.109 121.867 464.042 119.2C467.109 116.4 469.576 113.467 471.442 110.4C473.309 107.333 474.242 104.4 474.242 101.6C474.242 99.7333 473.242 98.0667 471.242 96.6C469.242 95 467.042 93.6 464.642 92.4C462.242 91.0667 460.442 90 459.242 89.2C457.776 88.1333 456.442 87.0667 455.242 86C454.042 84.8 453.109 83.5333 452.442 82.2C451.376 84.0667 449.976 86.3333 448.242 89C446.642 91.5333 444.709 94.2 442.442 97C441.642 97.8 440.842 98.2 440.042 98.2C439.242 98.2 438.842 97.8667 438.842 97.2C438.842 96.8 439.176 96.1333 439.842 95.2C443.442 90.9333 446.109 87 447.842 83.4C449.576 79.8 450.776 77.0667 451.442 75.2C451.976 71.3333 453.776 67.6667 456.842 64.2C459.909 60.7333 463.642 57.7333 468.042 55.2C472.442 52.5333 476.909 50.4667 481.442 49C486.109 47.5333 490.242 46.8 493.842 46.8C497.442 46.8 500.642 47.4667 503.442 48.8C506.242 50.1333 507.642 52.2667 507.642 55.2C507.642 56.8 507.176 58.5333 506.242 60.4C505.042 62.9333 503.042 65.2 500.242 67.2C500.109 67.3333 499.909 67.4 499.642 67.4C498.576 67.4 498.042 66.9333 498.042 66C498.042 65.3333 498.376 64.6667 499.042 64C500.109 63.0667 500.976 61.9333 501.642 60.6C502.309 59.2667 502.642 58 502.642 56.8C502.642 54.4 501.242 53.2 498.442 53.2C496.442 53.2 494.109 53.6 491.442 54.4C488.776 55.0667 486.176 55.9333 483.642 57C481.242 57.9333 479.242 58.8 477.642 59.6C474.309 61.2 471.242 63.2 468.442 65.6C465.642 67.8667 462.976 70.7333 460.442 74.2C458.709 76.4667 457.842 78.6 457.842 80.6C457.842 83 459.442 85.2 462.642 87.2C465.976 89.0667 469.242 90.8667 472.442 92.6C475.776 94.3333 478.576 96.2 480.842 98.2C483.109 100.2 484.242 102.6 484.242 105.4C484.242 108.467 482.309 112.133 478.442 116.4C476.042 119.067 472.776 121.6 468.642 124C464.642 126.4 460.376 128.333 455.842 129.8C451.309 131.267 447.176 132 443.442 132ZM502.022 124.6C500.955 124.6 500.689 124.133 501.222 123.2C501.489 122.4 502.155 120.4 503.222 117.2C504.422 114 505.822 110.133 507.422 105.6C509.022 101.067 510.689 96.4667 512.422 91.8C514.155 87 515.755 82.7333 517.222 79C516.289 80.2 514.822 81.9333 512.822 84.2C510.955 86.4667 508.955 88.8667 506.822 91.4C504.689 93.9333 502.689 96.1333 500.822 98C500.422 98.4 500.155 98.6 500.022 98.6C499.622 98.6 499.422 98.2 499.422 97.4C499.422 95.8 499.822 94.3333 500.622 93C503.555 89.2667 506.355 85.8 509.022 82.6C511.822 79.2667 514.355 76.1333 516.622 73.2C515.289 72.4 514.622 71.4 514.622 70.2C514.622 68.3333 515.555 67.4 517.422 67.4C518.222 67.4 518.822 67.5333 519.222 67.8C519.355 67.9333 519.489 68 519.622 68C519.755 68 519.889 68.1333 520.022 68.4C520.689 67.4667 521.222 66.6 521.622 65.8C522.155 65 522.622 64.1333 523.022 63.2C523.555 62 524.622 59.7333 526.222 56.4C527.955 52.9333 530.089 48.8667 532.622 44.2C535.155 39.5333 538.022 34.7333 541.222 29.8C544.555 24.7333 548.089 20.0667 551.822 15.8C555.689 11.4 559.622 7.86666 563.622 5.19999C567.755 2.53333 571.955 1.19999 576.222 1.19999C576.755 1.19999 577.289 1.26666 577.822 1.39999C578.355 1.39999 578.889 1.46666 579.422 1.59999C582.755 2.26666 585.089 3.46666 586.422 5.19999C587.755 6.79999 588.422 8.73333 588.422 11C588.422 12.6 588.089 14.3333 587.422 16.2C586.889 17.9333 586.089 19.6667 585.022 21.4C582.355 26.0667 578.822 30.8 574.422 35.6C570.022 40.2667 565.089 44.9333 559.622 49.6C554.289 54.1333 548.889 58.6 543.422 63C538.089 67.2667 533.089 71.3333 528.422 75.2C525.222 82 522.755 88.0667 521.022 93.4C519.289 98.6 517.955 102.8 517.022 106C518.489 104.133 520.689 101.467 523.622 98C526.555 94.5333 529.889 90.8 533.622 86.8C537.355 82.8 541.222 79 545.222 75.4C549.222 71.6667 553.022 68.6667 556.622 66.4C560.222 64 563.289 62.8 565.822 62.8C569.022 62.8 570.622 64.4667 570.622 67.8C570.622 71 569.489 74.5333 567.222 78.4C564.955 82.2667 563.089 85.5333 561.622 88.2C559.755 92.0667 558.222 95.8 557.022 99.4C555.955 102.867 555.289 105.733 555.022 108C554.889 108.533 554.822 109.067 554.822 109.6C554.822 110 554.822 110.467 554.822 111C554.822 116.333 556.689 119 560.422 119C562.422 119 565.089 117.8 568.422 115.4C571.755 113 575.155 110.133 578.622 106.8C582.089 103.467 585.222 100.267 588.022 97.2C590.955 94 592.955 91.6 594.022 90C594.422 89.6 594.889 89.4 595.422 89.4C595.955 89.4 596.355 89.6 596.622 90C596.889 90.4 596.889 90.9333 596.622 91.6C595.289 93.8667 593.222 96.7333 590.422 100.2C587.622 103.533 584.489 106.933 581.022 110.4C577.555 113.733 574.155 116.6 570.822 119C569.089 120.333 566.822 121.467 564.022 122.4C561.355 123.467 558.689 124 556.022 124C553.889 124 551.822 123.467 549.822 122.4C547.822 121.333 546.355 119.333 545.422 116.4C545.022 115.2 544.822 113.533 544.822 111.4C544.822 110.733 544.822 110.067 544.822 109.4C544.822 108.6 544.889 107.8 545.022 107C545.555 102.733 546.955 98.2667 549.222 93.6C551.622 88.8 553.822 84.5333 555.822 80.8C556.355 79.7333 556.755 78.8 557.022 78C557.422 77.2 557.622 76.5333 557.622 76C557.622 74.9333 557.155 74.4 556.222 74.4C555.289 74.4 553.822 75 551.822 76.2C549.822 77.4 547.155 79.4667 543.822 82.4C540.889 84.9333 537.755 88.2667 534.422 92.4C531.222 96.4 528.022 100.533 524.822 104.8C521.755 109.067 519.022 112.733 516.622 115.8C514.355 118.867 512.755 120.667 511.822 121.2C511.155 121.6 509.622 122.267 507.222 123.2C504.822 124.133 503.089 124.6 502.022 124.6ZM532.222 66.2C537.555 62.6 543.355 58.1333 549.622 52.8C555.889 47.3333 561.755 41.5333 567.222 35.4C572.822 29.1333 577.089 23.2 580.022 17.6C581.622 14.5333 582.422 12 582.422 10C582.422 7.73333 581.422 6.6 579.422 6.6C578.489 6.6 577.422 6.86666 576.222 7.4C575.022 7.79999 573.622 8.59999 572.022 9.79999C563.089 16.7333 555.555 25 549.422 34.6C543.289 44.0667 537.555 54.6 532.222 66.2ZM599.787 148.8C595.654 148.8 592.054 147.733 588.987 145.6C585.787 143.6 583.521 140.533 582.187 136.4C582.187 136.133 582.187 135.867 582.187 135.6C582.054 135.333 581.987 135.067 581.987 134.8C581.987 133.867 582.121 133.067 582.387 132.4C582.654 131.733 582.987 131.4 583.387 131.4C584.321 131.4 585.054 132.667 585.587 135.2C586.921 138.533 588.921 140.667 591.587 141.6C594.254 142.667 597.254 143.2 600.587 143.2C601.654 143.2 602.721 143.133 603.787 143C604.854 142.867 605.854 142.667 606.787 142.4C612.787 140.533 618.454 137.133 623.787 132.2C628.988 127.4 633.854 121.6 638.388 114.8C642.921 107.867 647.054 100.467 650.788 92.6C654.654 84.6 658.121 76.6 661.188 68.6C664.254 60.4667 666.921 52.8 669.188 45.6C671.588 38.2667 673.588 31.9333 675.188 26.6C671.454 30.0667 667.254 32.6667 662.588 34.4C657.921 36.1333 653.588 37.2667 649.588 37.8H649.388C647.921 37.8 647.188 37.2667 647.188 36.2C647.188 35.1333 647.988 34.5333 649.588 34.4C653.454 34 657.388 32.5333 661.388 30C665.388 27.3333 669.121 24 672.588 20C676.188 15.8667 679.054 11.4 681.188 6.6C681.454 5.93333 682.321 5.4 683.788 4.99999C685.388 4.46666 686.988 4.19999 688.588 4.19999C690.054 4.19999 691.321 4.39999 692.388 4.79999C693.588 5.2 694.054 5.8 693.788 6.6C688.454 19.5333 683.254 32.6667 678.188 46C673.254 59.3333 667.654 72.4667 661.388 85.4C664.054 82.0667 666.788 78.8 669.588 75.6C672.521 72.2667 675.788 68.7333 679.388 65V62.4C679.388 61.3333 679.388 60.4 679.388 59.6C679.388 58.8 679.454 58 679.588 57.2C679.854 56.5333 680.254 55.7333 680.788 54.8C681.321 53.8667 681.854 53.4 682.388 53.4C682.921 53.4 683.388 54.2667 683.788 56C683.788 56.5333 683.788 57 683.788 57.4C683.921 57.8 684.054 58.2667 684.188 58.8L684.588 58.4C685.788 57.2 688.054 55.1333 691.388 52.2C694.721 49.2667 698.654 45.8 703.188 41.8C707.854 37.8 712.721 33.7333 717.788 29.6C722.854 25.3333 727.654 21.3333 732.188 17.6C736.721 13.7333 740.654 10.5333 743.988 7.99999C747.321 5.46666 749.521 3.93332 750.588 3.39999C752.588 2.33333 754.388 1.6 755.988 1.19999C757.721 0.799991 759.188 0.599989 760.388 0.599989C762.521 0.599989 764.054 1.06666 764.988 2C766.054 2.79999 766.588 3.79999 766.588 4.99999C766.588 7.39999 765.054 9.4 761.988 11C757.988 12.8667 753.254 15.4 747.788 18.6C742.321 21.6667 736.588 25.1333 730.588 29C724.588 32.7333 718.721 36.6667 712.988 40.8C707.254 44.8 701.988 48.7333 697.188 52.6C692.388 56.4667 688.521 60 685.588 63.2C687.588 70.2667 689.521 76.3333 691.388 81.4C693.254 86.4667 695.521 91.3333 698.188 96C700.988 100.533 704.654 105.667 709.188 111.4C712.254 115 715.388 117.867 718.588 120C721.788 122.133 724.654 123.2 727.188 123.2C729.454 123.2 730.988 122.733 731.788 121.8C732.721 120.733 733.188 119.467 733.188 118C733.188 116.133 732.721 114.2 731.788 112.2C730.854 110.2 729.921 108.533 728.988 107.2C728.321 106.133 727.988 105.4 727.988 105C727.988 104.467 728.321 104.2 728.988 104.2C730.321 104.2 731.588 104.8 732.787 106C733.454 106.667 734.321 108.133 735.388 110.4C736.588 112.667 737.188 114.667 737.188 116.4C737.188 119.067 736.254 121.333 734.388 123.2C732.521 125.067 730.388 126.4 727.988 127.2C725.588 128.133 723.521 128.6 721.788 128.6C715.521 128.6 709.988 126.8 705.188 123.2C700.521 119.6 696.521 114.933 693.188 109.2C689.988 103.333 687.321 97 685.188 90.2C683.054 83.2667 681.388 76.5333 680.188 70C674.454 76.6667 668.788 83.4 663.188 90.2C657.588 97 653.054 102.733 649.588 107.4C647.054 111.667 644.054 116.2 640.588 121C637.121 125.8 633.254 130.267 628.988 134.4C624.854 138.667 620.387 142.133 615.587 144.8C610.654 147.467 605.387 148.8 599.787 148.8ZM800.111 124C797.711 124 795.578 123.467 793.711 122.4C791.844 121.333 790.444 119.333 789.511 116.4C789.378 115.733 789.178 115 788.911 114.2C788.778 113.267 788.711 112.333 788.711 111.4C788.711 108.2 789.111 104.6 789.911 100.6C790.844 96.6 791.844 93.2667 792.911 90.6C792.378 91 791.444 92.3333 790.111 94.6C788.778 96.8667 787.111 99.5333 785.111 102.6C783.111 105.533 780.844 108.533 778.311 111.6C775.911 114.533 773.244 117 770.311 119C767.511 120.867 764.511 121.8 761.311 121.8C759.178 121.8 756.578 121.2 753.511 120C750.578 118.8 748.444 117.133 747.111 115C745.778 112.867 745.111 110.2 745.111 107C745.111 103.133 745.978 98.9333 747.711 94.4C749.444 89.7333 751.644 85.4 754.311 81.4C755.244 80.0667 756.311 78.4667 757.511 76.6C758.711 74.7333 759.911 73.1333 761.111 71.8C762.311 70.3333 763.178 69.5333 763.711 69.4C765.311 68.8667 767.178 68.6 769.311 68.6C771.578 68.6 773.244 68.8667 774.311 69.4C775.244 69.8 775.711 70.2667 775.711 70.8C775.711 71.4667 775.178 72.3333 774.111 73.4C772.644 74.7333 770.644 76.7333 768.111 79.4C765.578 82.0667 763.044 85.2667 760.511 89C758.111 92.7333 756.111 96.8667 754.511 101.4C753.178 105 752.511 108.133 752.511 110.8C752.511 115.467 754.378 117.8 758.111 117.8C761.311 117.8 764.711 116.467 768.311 113.8C771.911 111.133 775.378 107.867 778.711 104C782.178 100.133 785.244 96.3333 787.911 92.6C790.711 88.7333 792.844 85.6667 794.311 83.4C795.644 81.5333 797.111 79.1333 798.711 76.2C800.444 73.2667 802.111 70.4 803.711 67.6C805.311 64.8 806.578 62.7333 807.511 61.4C808.444 61.4 809.844 61.6 811.711 62C813.711 62.2667 815.378 62.8 816.711 63.6C818.178 64.4 818.578 65.4 817.911 66.6C817.111 67.9333 815.844 70 814.111 72.8C812.511 75.6 810.844 78.4667 809.111 81.4C807.511 84.2 806.244 86.4667 805.311 88.2C802.111 94.3333 800.044 100.933 799.111 108C798.978 108.533 798.911 109.067 798.911 109.6C798.911 110 798.911 110.467 798.911 111C798.911 116.333 800.711 119 804.311 119C806.311 119 808.978 117.8 812.311 115.4C815.644 113 819.044 110.133 822.511 106.8C826.111 103.467 829.311 100.267 832.111 97.2C835.044 94 837.044 91.6 838.111 90C838.378 89.6 838.778 89.4 839.311 89.4C839.844 89.4 840.244 89.6 840.511 90C840.911 90.4 840.911 90.9333 840.511 91.6C839.311 93.8667 837.244 96.7333 834.311 100.2C831.511 103.533 828.378 106.933 824.911 110.4C821.444 113.733 818.044 116.6 814.711 119C812.978 120.333 810.778 121.467 808.111 122.4C805.444 123.467 802.778 124 800.111 124ZM837.778 132C836.311 132 834.845 131.8 833.378 131.4C831.911 131 830.845 130.2 830.178 129C829.645 127.933 829.711 126.6 830.378 125C831.045 123.533 831.978 122.2 833.178 121C834.245 119.933 835.578 118.867 837.178 117.8C838.911 116.733 840.711 115.867 842.578 115.2H842.978C843.645 115.2 843.978 115.467 843.978 116C843.978 116.4 843.711 116.8 843.178 117.2C840.778 118.4 838.911 119.867 837.578 121.6C836.645 122.667 836.178 123.8 836.178 125C836.178 127.133 837.445 128.2 839.978 128.2C842.778 128.2 845.778 127.333 848.978 125.6C852.311 124 855.445 121.867 858.378 119.2C861.445 116.4 863.911 113.467 865.778 110.4C867.645 107.333 868.578 104.4 868.578 101.6C868.578 99.7333 867.578 98.0667 865.578 96.6C863.578 95 861.378 93.6 858.978 92.4C856.578 91.0667 854.778 90 853.578 89.2C852.111 88.1333 850.778 87.0667 849.578 86C848.378 84.8 847.445 83.5333 846.778 82.2C845.711 84.0667 844.311 86.3333 842.578 89C840.978 91.5333 839.045 94.2 836.778 97C835.978 97.8 835.178 98.2 834.378 98.2C833.578 98.2 833.178 97.8667 833.178 97.2C833.178 96.8 833.511 96.1333 834.178 95.2C837.778 90.9333 840.445 87 842.178 83.4C843.911 79.8 845.111 77.0667 845.778 75.2C846.311 71.3333 848.111 67.6667 851.178 64.2C854.245 60.7333 857.978 57.7333 862.378 55.2C866.778 52.5333 871.245 50.4667 875.778 49C880.445 47.5333 884.578 46.8 888.178 46.8C891.778 46.8 894.978 47.4667 897.778 48.8C900.578 50.1333 901.978 52.2667 901.978 55.2C901.978 56.8 901.511 58.5333 900.578 60.4C899.378 62.9333 897.378 65.2 894.578 67.2C894.445 67.3333 894.245 67.4 893.978 67.4C892.911 67.4 892.378 66.9333 892.378 66C892.378 65.3333 892.711 64.6667 893.378 64C894.445 63.0667 895.311 61.9333 895.978 60.6C896.645 59.2667 896.978 58 896.978 56.8C896.978 54.4 895.578 53.2 892.778 53.2C890.778 53.2 888.445 53.6 885.778 54.4C883.111 55.0667 880.511 55.9333 877.978 57C875.578 57.9333 873.578 58.8 871.978 59.6C868.645 61.2 865.578 63.2 862.778 65.6C859.978 67.8667 857.311 70.7333 854.778 74.2C853.045 76.4667 852.178 78.6 852.178 80.6C852.178 83 853.778 85.2 856.978 87.2C860.311 89.0667 863.578 90.8667 866.778 92.6C870.111 94.3333 872.911 96.2 875.178 98.2C877.445 100.2 878.578 102.6 878.578 105.4C878.578 108.467 876.645 112.133 872.778 116.4C870.378 119.067 867.111 121.6 862.978 124C858.978 126.4 854.711 128.333 850.178 129.8C845.645 131.267 841.511 132 837.778 132ZM896.358 124.6C895.291 124.6 895.024 124.133 895.558 123.2C895.824 122.4 896.491 120.4 897.558 117.2C898.758 114 900.158 110.133 901.758 105.6C903.358 101.067 905.024 96.4667 906.758 91.8C908.491 87 910.091 82.7333 911.558 79C910.624 80.2 909.158 81.9333 907.158 84.2C905.291 86.4667 903.291 88.8667 901.158 91.4C899.024 93.9333 897.024 96.1333 895.158 98C894.758 98.4 894.491 98.6 894.358 98.6C893.958 98.6 893.758 98.2 893.758 97.4C893.758 95.8 894.158 94.3333 894.958 93C897.891 89.2667 900.691 85.8 903.358 82.6C906.158 79.2667 908.691 76.1333 910.958 73.2C909.624 72.4 908.958 71.4 908.958 70.2C908.958 68.3333 909.891 67.4 911.758 67.4C912.558 67.4 913.158 67.5333 913.558 67.8C913.691 67.9333 913.824 68 913.958 68C914.091 68 914.224 68.1333 914.358 68.4C915.024 67.4667 915.558 66.6 915.958 65.8C916.491 65 916.958 64.1333 917.358 63.2C917.891 62 918.958 59.7333 920.558 56.4C922.291 52.9333 924.424 48.8667 926.958 44.2C929.491 39.5333 932.358 34.7333 935.558 29.8C938.891 24.7333 942.424 20.0667 946.158 15.8C950.024 11.4 953.958 7.86666 957.958 5.19999C962.091 2.53333 966.291 1.19999 970.558 1.19999C971.091 1.19999 971.624 1.26666 972.158 1.39999C972.691 1.39999 973.224 1.46666 973.758 1.59999C977.091 2.26666 979.424 3.46666 980.758 5.19999C982.091 6.79999 982.758 8.73333 982.758 11C982.758 12.6 982.424 14.3333 981.758 16.2C981.224 17.9333 980.424 19.6667 979.358 21.4C976.691 26.0667 973.158 30.8 968.758 35.6C964.358 40.2667 959.424 44.9333 953.958 49.6C948.624 54.1333 943.224 58.6 937.758 63C932.424 67.2667 927.424 71.3333 922.758 75.2C919.558 82 917.091 88.0667 915.358 93.4C913.624 98.6 912.291 102.8 911.358 106C912.824 104.133 915.024 101.467 917.958 98C920.891 94.5333 924.224 90.8 927.958 86.8C931.691 82.8 935.558 79 939.558 75.4C943.558 71.6667 947.358 68.6667 950.958 66.4C954.558 64 957.624 62.8 960.158 62.8C963.358 62.8 964.958 64.4667 964.958 67.8C964.958 71 963.824 74.5333 961.558 78.4C959.291 82.2667 957.424 85.5333 955.958 88.2C954.091 92.0667 952.558 95.8 951.358 99.4C950.291 102.867 949.624 105.733 949.358 108C949.224 108.533 949.158 109.067 949.158 109.6C949.158 110 949.158 110.467 949.158 111C949.158 116.333 951.024 119 954.758 119C956.758 119 959.424 117.8 962.758 115.4C966.091 113 969.491 110.133 972.958 106.8C976.424 103.467 979.558 100.267 982.358 97.2C985.291 94 987.291 91.6 988.358 90C988.758 89.6 989.224 89.4 989.758 89.4C990.291 89.4 990.691 89.6 990.958 90C991.224 90.4 991.224 90.9333 990.958 91.6C989.624 93.8667 987.558 96.7333 984.758 100.2C981.958 103.533 978.824 106.933 975.358 110.4C971.891 113.733 968.491 116.6 965.158 119C963.424 120.333 961.158 121.467 958.358 122.4C955.691 123.467 953.024 124 950.358 124C948.224 124 946.158 123.467 944.158 122.4C942.158 121.333 940.691 119.333 939.758 116.4C939.358 115.2 939.158 113.533 939.158 111.4C939.158 110.733 939.158 110.067 939.158 109.4C939.158 108.6 939.224 107.8 939.358 107C939.891 102.733 941.291 98.2667 943.558 93.6C945.958 88.8 948.158 84.5333 950.158 80.8C950.691 79.7333 951.091 78.8 951.358 78C951.758 77.2 951.958 76.5333 951.958 76C951.958 74.9333 951.491 74.4 950.558 74.4C949.624 74.4 948.158 75 946.158 76.2C944.158 77.4 941.491 79.4667 938.158 82.4C935.224 84.9333 932.091 88.2667 928.758 92.4C925.558 96.4 922.358 100.533 919.158 104.8C916.091 109.067 913.358 112.733 910.958 115.8C908.691 118.867 907.091 120.667 906.158 121.2C905.491 121.6 903.958 122.267 901.558 123.2C899.158 124.133 897.424 124.6 896.358 124.6ZM926.558 66.2C931.891 62.6 937.691 58.1333 943.958 52.8C950.224 47.3333 956.091 41.5333 961.558 35.4C967.158 29.1333 971.424 23.2 974.358 17.6C975.958 14.5333 976.758 12 976.758 10C976.758 7.73333 975.758 6.6 973.758 6.6C972.824 6.6 971.758 6.86666 970.558 7.4C969.358 7.79999 967.958 8.59999 966.358 9.79999C957.424 16.7333 949.891 25 943.758 34.6C937.624 44.0667 931.891 54.6 926.558 66.2ZM1041.57 122.6C1039.04 122.6 1036.71 122.067 1034.57 121C1032.44 119.8 1030.91 117.8 1029.97 115C1029.04 111.933 1028.57 108.133 1028.57 103.6C1028.57 101.333 1028.71 99.0667 1028.97 96.8C1029.37 94.4 1029.84 92.3333 1030.37 90.6C1029.71 91.8 1028.44 94.0667 1026.57 97.4C1024.71 100.6 1022.37 104.133 1019.57 108C1016.77 111.733 1013.57 115 1009.97 117.8C1006.51 120.467 1002.71 121.8 998.573 121.8C993.24 121.8 989.573 120.467 987.573 117.8C985.573 115 984.573 111.667 984.573 107.8C984.573 103.133 985.507 98.3333 987.373 93.4C989.373 88.3333 991.373 84.3333 993.373 81.4C994.307 80.0667 995.707 78.0667 997.573 75.4C999.44 72.7333 1001.24 70.2667 1002.97 68C1004.84 65.6 1006.11 64.2667 1006.77 64C1007.57 63.7333 1008.44 63.5333 1009.37 63.4C1010.31 63.2667 1011.24 63.2 1012.17 63.2C1014.31 63.2 1016.04 63.6 1017.37 64.4C1018.71 64.8 1019.37 65.4667 1019.37 66.4C1019.37 66.8 1019.04 67.3333 1018.37 68C1016.91 69.2 1014.57 71.6 1011.37 75.2C1008.17 78.8 1004.97 82.9333 1001.77 87.6C998.707 92.1333 996.373 96.6667 994.773 101.2C993.04 105.467 992.173 109 992.173 111.8C992.173 115.8 993.64 117.8 996.573 117.8C999.373 117.8 1003.37 115.733 1008.57 111.6C1012.31 108.667 1015.91 105 1019.37 100.6C1022.84 96.2 1026.04 91.6 1028.97 86.8C1032.04 81.8667 1034.77 77.3333 1037.17 73.2C1037.57 72.2667 1038.71 71.8 1040.57 71.8C1042.84 71.8 1045.04 72.3333 1047.17 73.4C1049.44 74.3333 1050.11 75.4667 1049.17 76.8C1045.31 83.0667 1042.37 89.8 1040.37 97C1039.97 98.6 1039.51 100.6 1038.97 103C1038.57 105.267 1038.37 107.533 1038.37 109.8C1038.37 112.2 1038.77 114.267 1039.57 116C1040.37 117.733 1041.84 118.6 1043.97 118.6C1045.04 118.6 1046.11 118.467 1047.17 118.2C1048.37 117.8 1049.71 117.133 1051.17 116.2C1056.24 113.533 1061.17 109.933 1065.97 105.4C1070.91 100.733 1075.24 95.6 1078.97 90C1082.71 84.2667 1085.17 78.6667 1086.37 73.2C1086.77 71.6 1086.97 69.6667 1086.97 67.4C1086.97 64.7333 1086.51 62.2 1085.57 59.8C1084.77 57.2667 1083.24 55.5333 1080.97 54.6C1080.17 54.3333 1079.31 54.2 1078.37 54.2C1077.44 54.0667 1076.44 54.0667 1075.37 54.2H1074.97C1074.31 54.2 1073.97 53.8667 1073.97 53.2C1073.97 52.5333 1074.31 52.0667 1074.97 51.8C1076.57 51.4 1078.64 51.2 1081.17 51.2C1083.57 51.2 1085.97 51.6 1088.37 52.4C1090.91 53.2 1092.64 54.7333 1093.57 57C1094.64 59.5333 1095.17 62.0667 1095.17 64.6C1095.17 69.5333 1093.71 74.8 1090.77 80.4C1087.97 86 1084.37 91.4 1079.97 96.6C1076.51 100.867 1072.64 104.867 1068.37 108.6C1064.11 112.333 1060.44 115.267 1057.37 117.4C1055.64 118.733 1053.31 119.933 1050.37 121C1047.57 122.067 1044.64 122.6 1041.57 122.6ZM1151.34 124C1149.07 124 1146.94 123.467 1144.94 122.4C1143.07 121.333 1141.67 119.333 1140.74 116.4C1140.34 115.2 1140.14 113.533 1140.14 111.4C1140.14 108.467 1140.54 105.2 1141.34 101.6C1142.14 98 1143.01 94.9333 1143.94 92.4C1143.27 92.6667 1142.01 93.8667 1140.14 96C1138.41 98 1136.21 100.467 1133.54 103.4C1131.01 106.2 1128.14 109.067 1124.94 112C1121.87 114.8 1118.67 117.133 1115.34 119C1112.01 120.867 1108.74 121.8 1105.54 121.8C1103.41 121.8 1101.14 121.2 1098.74 120C1096.34 118.667 1094.41 117 1092.94 115C1090.94 112.333 1089.94 109.6 1089.94 106.8C1089.94 103.2 1091.14 99.4667 1093.54 95.6C1096.07 91.7333 1099.27 88 1103.14 84.4C1107.14 80.6667 1111.34 77.3333 1115.74 74.4C1120.27 71.3333 1124.54 68.8 1128.54 66.8C1132.67 64.6667 1136.01 63.2667 1138.54 62.6C1141.21 61.8 1144.21 61.4 1147.54 61.4C1149.41 61.4 1151.34 61.6667 1153.34 62.2C1155.34 62.6 1157.01 63.3333 1158.34 64.4C1159.41 64.9333 1160.27 65.6667 1160.94 66.6C1161.61 67.5333 1161.94 68.5333 1161.94 69.6C1161.94 70.6667 1161.47 71 1160.54 70.6C1159.47 69 1158.01 68 1156.14 67.6C1154.41 67.0667 1152.61 66.8 1150.74 66.8C1145.41 66.8 1139.54 68.5333 1133.14 72C1126.74 75.4667 1121.01 79.5333 1115.94 84.2C1114.34 85.5333 1112.14 87.8667 1109.34 91.2C1106.67 94.4 1104.21 97.9333 1101.94 101.8C1099.67 105.667 1098.54 109.2 1098.54 112.4C1098.54 114.133 1099.01 115.667 1099.94 117C1100.47 117.933 1101.34 118.4 1102.54 118.4C1104.41 118.4 1106.87 117.4 1109.94 115.4C1113.14 113.4 1116.41 111 1119.74 108.2C1123.07 105.267 1126.07 102.467 1128.74 99.8C1131.54 97.1333 1133.54 95.2 1134.74 94C1135.41 93.3333 1136.67 92 1138.54 90C1140.54 87.8667 1142.67 85.6 1144.94 83.2C1147.21 80.8 1149.21 78.7333 1150.94 77C1152.81 75.2667 1154.01 74.4 1154.54 74.4C1155.21 74.4 1156.27 74.6 1157.74 75C1159.34 75.2667 1160.67 75.7333 1161.74 76.4C1162.81 77.0667 1163.01 77.9333 1162.34 79C1158.87 84.0667 1156.07 89.4 1153.94 95C1151.94 100.467 1150.74 104.8 1150.34 108C1150.21 108.533 1150.14 109.067 1150.14 109.6C1150.14 110 1150.14 110.467 1150.14 111C1150.14 116.333 1152.01 119 1155.74 119C1157.74 119 1160.41 117.8 1163.74 115.4C1167.07 113 1170.47 110.133 1173.94 106.8C1177.41 103.467 1180.54 100.267 1183.34 97.2C1186.27 94 1188.27 91.6 1189.34 90C1189.74 89.6 1190.14 89.4 1190.54 89.4C1191.07 89.4 1191.54 89.6667 1191.94 90.2C1192.34 90.6 1192.34 91.1333 1191.94 91.8C1190.47 94.2 1188.34 97.0667 1185.54 100.4C1182.74 103.733 1179.61 107.067 1176.14 110.4C1172.67 113.733 1169.27 116.6 1165.94 119C1164.21 120.333 1162.01 121.467 1159.34 122.4C1156.67 123.467 1154.01 124 1151.34 124ZM1187.76 124.6C1186.7 124.6 1186.43 124.133 1186.96 123.2C1187.23 122.4 1187.9 120.4 1188.96 117.2C1190.16 114 1191.56 110.133 1193.16 105.6C1194.76 101.067 1196.43 96.4667 1198.16 91.8C1199.9 87 1201.5 82.7333 1202.96 79C1202.03 80.2 1200.56 81.9333 1198.56 84.2C1196.7 86.4667 1194.7 88.8667 1192.56 91.4C1190.43 93.9333 1188.43 96.1333 1186.56 98C1186.16 98.4 1185.9 98.6 1185.76 98.6C1185.36 98.6 1185.16 98.2 1185.16 97.4C1185.16 95.8 1185.56 94.3333 1186.36 93C1189.3 89.2667 1192.1 85.8 1194.76 82.6C1197.56 79.2667 1200.1 76.1333 1202.36 73.2C1201.03 72.4 1200.36 71.4 1200.36 70.2C1200.36 68.3333 1201.3 67.4 1203.16 67.4C1203.96 67.4 1204.56 67.5333 1204.96 67.8C1205.1 67.9333 1205.23 68 1205.36 68C1205.5 68 1205.63 68.1333 1205.76 68.4C1206.43 67.4667 1206.96 66.6 1207.36 65.8C1207.9 65 1208.36 64.1333 1208.76 63.2C1209.3 62 1210.36 59.7333 1211.96 56.4C1213.7 52.9333 1215.83 48.8667 1218.36 44.2C1220.9 39.5333 1223.76 34.7333 1226.96 29.8C1230.3 24.7333 1233.83 20.0667 1237.56 15.8C1241.43 11.4 1245.36 7.86666 1249.36 5.19999C1253.5 2.53333 1257.7 1.19999 1261.96 1.19999C1262.5 1.19999 1263.03 1.26666 1263.56 1.39999C1264.1 1.39999 1264.63 1.46666 1265.16 1.59999C1268.5 2.26666 1270.83 3.46666 1272.16 5.19999C1273.5 6.79999 1274.16 8.73333 1274.16 11C1274.16 12.6 1273.83 14.3333 1273.16 16.2C1272.63 17.9333 1271.83 19.6667 1270.76 21.4C1268.1 26.0667 1264.56 30.8 1260.16 35.6C1255.76 40.2667 1250.83 44.9333 1245.36 49.6C1240.03 54.1333 1234.63 58.6 1229.16 63C1223.83 67.2667 1218.83 71.3333 1214.16 75.2C1210.96 82 1208.5 88.0667 1206.76 93.4C1205.03 98.6 1203.7 102.8 1202.76 106C1204.23 104.133 1206.43 101.467 1209.36 98C1212.3 94.5333 1215.63 90.8 1219.36 86.8C1223.1 82.8 1226.96 79 1230.96 75.4C1234.96 71.6667 1238.76 68.6667 1242.36 66.4C1245.96 64 1249.03 62.8 1251.56 62.8C1254.76 62.8 1256.36 64.4667 1256.36 67.8C1256.36 71 1255.23 74.5333 1252.96 78.4C1250.7 82.2667 1248.83 85.5333 1247.36 88.2C1245.5 92.0667 1243.96 95.8 1242.76 99.4C1241.7 102.867 1241.03 105.733 1240.76 108C1240.63 108.533 1240.56 109.067 1240.56 109.6C1240.56 110 1240.56 110.467 1240.56 111C1240.56 116.333 1242.43 119 1246.16 119C1248.16 119 1250.83 117.8 1254.16 115.4C1257.5 113 1260.9 110.133 1264.36 106.8C1267.83 103.467 1270.96 100.267 1273.76 97.2C1276.7 94 1278.7 91.6 1279.76 90C1280.16 89.6 1280.63 89.4 1281.16 89.4C1281.7 89.4 1282.1 89.6 1282.36 90C1282.63 90.4 1282.63 90.9333 1282.36 91.6C1281.03 93.8667 1278.96 96.7333 1276.16 100.2C1273.36 103.533 1270.23 106.933 1266.76 110.4C1263.3 113.733 1259.9 116.6 1256.56 119C1254.83 120.333 1252.56 121.467 1249.76 122.4C1247.1 123.467 1244.43 124 1241.76 124C1239.63 124 1237.56 123.467 1235.56 122.4C1233.56 121.333 1232.1 119.333 1231.16 116.4C1230.76 115.2 1230.56 113.533 1230.56 111.4C1230.56 110.733 1230.56 110.067 1230.56 109.4C1230.56 108.6 1230.63 107.8 1230.76 107C1231.3 102.733 1232.7 98.2667 1234.96 93.6C1237.36 88.8 1239.56 84.5333 1241.56 80.8C1242.1 79.7333 1242.5 78.8 1242.76 78C1243.16 77.2 1243.36 76.5333 1243.36 76C1243.36 74.9333 1242.9 74.4 1241.96 74.4C1241.03 74.4 1239.56 75 1237.56 76.2C1235.56 77.4 1232.9 79.4667 1229.56 82.4C1226.63 84.9333 1223.5 88.2667 1220.16 92.4C1216.96 96.4 1213.76 100.533 1210.56 104.8C1207.5 109.067 1204.76 112.733 1202.36 115.8C1200.1 118.867 1198.5 120.667 1197.56 121.2C1196.9 121.6 1195.36 122.267 1192.96 123.2C1190.56 124.133 1188.83 124.6 1187.76 124.6ZM1217.96 66.2C1223.3 62.6 1229.1 58.1333 1235.36 52.8C1241.63 47.3333 1247.5 41.5333 1252.96 35.4C1258.56 29.1333 1262.83 23.2 1265.76 17.6C1267.36 14.5333 1268.16 12 1268.16 10C1268.16 7.73333 1267.16 6.6 1265.16 6.6C1264.23 6.6 1263.16 6.86666 1261.96 7.4C1260.76 7.79999 1259.36 8.59999 1257.76 9.79999C1248.83 16.7333 1241.3 25 1235.16 34.6C1229.03 44.0667 1223.3 54.6 1217.96 66.2ZM1332.98 124C1330.71 124 1328.58 123.467 1326.58 122.4C1324.71 121.333 1323.31 119.333 1322.38 116.4C1321.98 115.2 1321.78 113.533 1321.78 111.4C1321.78 108.467 1322.18 105.2 1322.98 101.6C1323.78 98 1324.65 94.9333 1325.58 92.4C1324.91 92.6667 1323.65 93.8667 1321.78 96C1320.05 98 1317.85 100.467 1315.18 103.4C1312.65 106.2 1309.78 109.067 1306.58 112C1303.51 114.8 1300.31 117.133 1296.98 119C1293.65 120.867 1290.38 121.8 1287.18 121.8C1285.05 121.8 1282.78 121.2 1280.38 120C1277.98 118.667 1276.05 117 1274.58 115C1272.58 112.333 1271.58 109.6 1271.58 106.8C1271.58 103.2 1272.78 99.4667 1275.18 95.6C1277.71 91.7333 1280.91 88 1284.78 84.4C1288.78 80.6667 1292.98 77.3333 1297.38 74.4C1301.91 71.3333 1306.18 68.8 1310.18 66.8C1314.31 64.6667 1317.65 63.2667 1320.18 62.6C1322.85 61.8 1325.85 61.4 1329.18 61.4C1331.05 61.4 1332.98 61.6667 1334.98 62.2C1336.98 62.6 1338.65 63.3333 1339.98 64.4C1341.05 64.9333 1341.91 65.6667 1342.58 66.6C1343.25 67.5333 1343.58 68.5333 1343.58 69.6C1343.58 70.6667 1343.11 71 1342.18 70.6C1341.11 69 1339.65 68 1337.78 67.6C1336.05 67.0667 1334.25 66.8 1332.38 66.8C1327.05 66.8 1321.18 68.5333 1314.78 72C1308.38 75.4667 1302.65 79.5333 1297.58 84.2C1295.98 85.5333 1293.78 87.8667 1290.98 91.2C1288.31 94.4 1285.85 97.9333 1283.58 101.8C1281.31 105.667 1280.18 109.2 1280.18 112.4C1280.18 114.133 1280.65 115.667 1281.58 117C1282.11 117.933 1282.98 118.4 1284.18 118.4C1286.05 118.4 1288.51 117.4 1291.58 115.4C1294.78 113.4 1298.05 111 1301.38 108.2C1304.71 105.267 1307.71 102.467 1310.38 99.8C1313.18 97.1333 1315.18 95.2 1316.38 94C1317.05 93.3333 1318.31 92 1320.18 90C1322.18 87.8667 1324.31 85.6 1326.58 83.2C1328.85 80.8 1330.85 78.7333 1332.58 77C1334.45 75.2667 1335.65 74.4 1336.18 74.4C1336.85 74.4 1337.91 74.6 1339.38 75C1340.98 75.2667 1342.31 75.7333 1343.38 76.4C1344.45 77.0667 1344.65 77.9333 1343.98 79C1340.51 84.0667 1337.71 89.4 1335.58 95C1333.58 100.467 1332.38 104.8 1331.98 108C1331.85 108.533 1331.78 109.067 1331.78 109.6C1331.78 110 1331.78 110.467 1331.78 111C1331.78 116.333 1333.65 119 1337.38 119C1339.38 119 1342.05 117.8 1345.38 115.4C1348.71 113 1352.11 110.133 1355.58 106.8C1359.05 103.467 1362.18 100.267 1364.98 97.2C1367.91 94 1369.91 91.6 1370.98 90C1371.38 89.6 1371.78 89.4 1372.18 89.4C1372.71 89.4 1373.18 89.6667 1373.58 90.2C1373.98 90.6 1373.98 91.1333 1373.58 91.8C1372.11 94.2 1369.98 97.0667 1367.18 100.4C1364.38 103.733 1361.25 107.067 1357.78 110.4C1354.31 113.733 1350.91 116.6 1347.58 119C1345.85 120.333 1343.65 121.467 1340.98 122.4C1338.31 123.467 1335.65 124 1332.98 124ZM1409.15 124.4C1407.55 124.4 1407.02 123.667 1407.55 122.2C1408.09 120.6 1409.75 117.6 1412.55 113.2C1415.35 108.8 1418.89 103.533 1423.15 97.4C1427.42 91.2667 1432.02 84.6667 1436.95 77.6C1442.02 70.5333 1447.15 63.5333 1452.35 56.6C1457.55 49.5333 1462.42 43 1466.95 37C1471.49 31 1475.35 25.9333 1478.55 21.8C1481.89 17.6667 1484.22 15 1485.55 13.8C1486.22 13.1333 1487.09 12.6667 1488.15 12.4C1489.35 12 1490.42 11.8 1491.35 11.8C1492.42 11.8 1493.15 12 1493.55 12.4C1494.09 12.8 1494.02 13.4667 1493.35 14.4C1490.69 17.3333 1486.95 21.7333 1482.15 27.6C1477.35 33.3333 1472.02 40 1466.15 47.6C1460.29 55.2 1454.22 63.2667 1447.95 71.8C1441.69 80.2 1435.69 88.6 1429.95 97C1424.35 105.4 1419.42 113.267 1415.15 120.6C1414.49 121.667 1413.55 122.533 1412.35 123.2C1411.15 124 1410.09 124.4 1409.15 124.4ZM1514.52 116C1513.59 116 1513.12 115.467 1513.12 114.4C1513.12 112.8 1514.32 110.533 1516.72 107.6C1519.79 104 1524.85 98.6 1531.92 91.4C1539.12 84.2 1547.92 75.6 1558.32 65.6C1554.19 57.8667 1550.72 51.2 1547.92 45.6C1545.12 40 1543.19 35.7333 1542.12 32.8C1541.32 30.9333 1540.92 29.4 1540.92 28.2C1540.92 26.0667 1541.59 25 1542.92 25C1543.99 25 1545.32 26.0667 1546.92 28.2C1550.12 33.5333 1553.52 38.4667 1557.12 43C1560.85 47.4 1564.92 51.8 1569.32 56.2C1571.72 58.6 1572.92 60.2667 1572.92 61.2C1572.92 62.1333 1572.45 63 1571.52 63.8C1570.59 64.6 1569.39 65.7333 1567.92 67.2C1559.39 75.3333 1550.85 83.5333 1542.32 91.8C1533.92 99.9333 1525.19 107.733 1516.12 115.2C1515.32 115.733 1514.79 116 1514.52 116Z" fill="white"/>
</svg>
